<svg viewBox="0 0 311 435" fill="none" xmlns="http://www.w3.org/2000/svg">
    <g filter="url(#filter0_d)">
    <rect x="16" y="8" width="279" height="403" rx="5" fill="white"/>
    </g>
    <path d="M208.069 203.431H230.414V133.603H208.069V203.431Z" fill="#B0BAC1"/>
    <path d="M79.5862 203.431H124.276V133.603H79.5862V203.431Z" fill="#B0BAC1"/>
    <path d="M90.7588 178.293H113.103V144.776H90.7588V178.293Z" fill="#899ABF"/>
    <path d="M208.069 178.293H219.241V144.776H208.069V178.293Z" fill="#899ABF"/>
    <path d="M99.1378 178.293H104.724V144.776H99.1378V178.293Z" fill="#434C6D"/>
    <path d="M166.172 80.5345L115.897 108.466V122.431L166.172 94.5L216.448 122.431V108.466L166.172 80.5345Z" fill="#D35F5F"/>
    <path d="M166.172 94.5L124.276 117.775V203.431H208.069V117.775L166.172 94.5Z" fill="#E8EDEE"/>
    <path d="M115.897 108.466L166.172 80.5345L216.448 108.466V116.845H230.414L224.828 66.5689H85.1723L79.5862 116.845H115.897V108.466Z" fill="#FF7E7A"/>
    <path d="M115.897 122.431V116.845H74V133.603H124.276V117.775L115.897 122.431Z" fill="#B54D4D"/>
    <path d="M216.448 116.845V122.431L208.069 117.775V133.603H236V116.845H216.448Z" fill="#B54D4D"/>
    <path d="M149.414 203.431H182.931V153.155H149.414V203.431Z" fill="#26B99A"/>
    <path d="M174.552 181.086H171.758C170.214 181.086 168.965 179.835 168.965 178.293C168.965 176.751 170.214 175.5 171.758 175.5H174.552C176.096 175.5 177.345 176.751 177.345 178.293C177.345 179.835 176.096 181.086 174.552 181.086Z" fill="#198C71"/>
    <path d="M79.5862 195.052H124.276V189.466H79.5862V195.052Z" fill="#434C6D"/>
    <path d="M208.069 195.052H230.414V189.466H208.069V195.052Z" fill="#434C6D"/>
    <path d="M182.931 136.397H149.414V130.81C149.414 121.554 156.916 114.052 166.172 114.052C175.429 114.052 182.931 121.554 182.931 130.81V136.397Z" fill="#899ABF"/>
    <path d="M44.3438 257.75L46.7109 252.625H49.2734L45.5391 259.875V264H43.1562V259.875L39.4219 252.625H41.9922L44.3438 257.75ZM49.2969 259.695C49.2969 258.857 49.4583 258.109 49.7812 257.453C50.1042 256.797 50.5677 256.289 51.1719 255.93C51.7812 255.57 52.487 255.391 53.2891 255.391C54.4297 255.391 55.3594 255.74 56.0781 256.438C56.8021 257.135 57.2057 258.083 57.2891 259.281L57.3047 259.859C57.3047 261.156 56.9427 262.198 56.2188 262.984C55.4948 263.766 54.5234 264.156 53.3047 264.156C52.0859 264.156 51.112 263.766 50.3828 262.984C49.6589 262.203 49.2969 261.141 49.2969 259.797V259.695ZM51.5547 259.859C51.5547 260.661 51.7057 261.276 52.0078 261.703C52.3099 262.125 52.7422 262.336 53.3047 262.336C53.8516 262.336 54.2786 262.128 54.5859 261.711C54.8932 261.289 55.0469 260.617 55.0469 259.695C55.0469 258.909 54.8932 258.299 54.5859 257.867C54.2786 257.435 53.8464 257.219 53.2891 257.219C52.737 257.219 52.3099 257.435 52.0078 257.867C51.7057 258.294 51.5547 258.958 51.5547 259.859ZM63.7578 263.141C63.2005 263.818 62.4297 264.156 61.4453 264.156C60.5391 264.156 59.8464 263.896 59.3672 263.375C58.8932 262.854 58.651 262.091 58.6406 261.086V255.547H60.8984V261.008C60.8984 261.888 61.2995 262.328 62.1016 262.328C62.8672 262.328 63.3932 262.062 63.6797 261.531V255.547H65.9453V264H63.8203L63.7578 263.141ZM72.3984 257.664C72.0911 257.622 71.8203 257.602 71.5859 257.602C70.7318 257.602 70.1719 257.891 69.9062 258.469V264H67.6484V255.547H69.7812L69.8438 256.555C70.2969 255.779 70.9245 255.391 71.7266 255.391C71.9766 255.391 72.2109 255.424 72.4297 255.492L72.3984 257.664ZM79.6797 256.469C80.2786 255.75 81.0312 255.391 81.9375 255.391C83.7708 255.391 84.7005 256.456 84.7266 258.586V264H82.4688V258.648C82.4688 258.164 82.3646 257.807 82.1562 257.578C81.9479 257.344 81.6016 257.227 81.1172 257.227C80.4557 257.227 79.9766 257.482 79.6797 257.992V264H77.4219V252H79.6797V256.469ZM86.0781 259.695C86.0781 258.857 86.2396 258.109 86.5625 257.453C86.8854 256.797 87.349 256.289 87.9531 255.93C88.5625 255.57 89.2682 255.391 90.0703 255.391C91.2109 255.391 92.1406 255.74 92.8594 256.438C93.5833 257.135 93.987 258.083 94.0703 259.281L94.0859 259.859C94.0859 261.156 93.724 262.198 93 262.984C92.276 263.766 91.3047 264.156 90.0859 264.156C88.8672 264.156 87.8932 263.766 87.1641 262.984C86.4401 262.203 86.0781 261.141 86.0781 259.797V259.695ZM88.3359 259.859C88.3359 260.661 88.487 261.276 88.7891 261.703C89.0911 262.125 89.5234 262.336 90.0859 262.336C90.6328 262.336 91.0599 262.128 91.3672 261.711C91.6745 261.289 91.8281 260.617 91.8281 259.695C91.8281 258.909 91.6745 258.299 91.3672 257.867C91.0599 257.435 90.6276 257.219 90.0703 257.219C89.5182 257.219 89.0911 257.435 88.7891 257.867C88.487 258.294 88.3359 258.958 88.3359 259.859ZM97.5938 255.547L97.6641 256.492C98.263 255.758 99.0729 255.391 100.094 255.391C101.182 255.391 101.93 255.82 102.336 256.68C102.93 255.82 103.776 255.391 104.875 255.391C105.792 255.391 106.474 255.659 106.922 256.195C107.37 256.727 107.594 257.529 107.594 258.602V264H105.328V258.609C105.328 258.13 105.234 257.781 105.047 257.562C104.859 257.339 104.529 257.227 104.055 257.227C103.378 257.227 102.909 257.549 102.648 258.195L102.656 264H100.398V258.617C100.398 258.128 100.302 257.773 100.109 257.555C99.9167 257.336 99.5885 257.227 99.125 257.227C98.4844 257.227 98.0208 257.492 97.7344 258.023V264H95.4766V255.547H97.5938ZM113.227 264.156C111.987 264.156 110.977 263.776 110.195 263.016C109.419 262.255 109.031 261.242 109.031 259.977V259.758C109.031 258.909 109.195 258.151 109.523 257.484C109.852 256.812 110.315 256.297 110.914 255.938C111.518 255.573 112.206 255.391 112.977 255.391C114.133 255.391 115.042 255.755 115.703 256.484C116.37 257.214 116.703 258.247 116.703 259.586V260.508H111.32C111.393 261.06 111.612 261.503 111.977 261.836C112.346 262.169 112.812 262.336 113.375 262.336C114.245 262.336 114.924 262.021 115.414 261.391L116.523 262.633C116.185 263.112 115.727 263.487 115.148 263.758C114.57 264.023 113.93 264.156 113.227 264.156ZM112.969 257.219C112.521 257.219 112.156 257.37 111.875 257.672C111.599 257.974 111.422 258.406 111.344 258.969H114.484V258.789C114.474 258.289 114.339 257.904 114.078 257.633C113.818 257.357 113.448 257.219 112.969 257.219ZM124.359 264H122.094V255.547H124.359V264ZM121.961 253.359C121.961 253.021 122.073 252.742 122.297 252.523C122.526 252.305 122.836 252.195 123.227 252.195C123.612 252.195 123.919 252.305 124.148 252.523C124.378 252.742 124.492 253.021 124.492 253.359C124.492 253.703 124.375 253.984 124.141 254.203C123.911 254.422 123.607 254.531 123.227 254.531C122.846 254.531 122.539 254.422 122.305 254.203C122.076 253.984 121.961 253.703 121.961 253.359ZM130.805 261.664C130.805 261.388 130.667 261.172 130.391 261.016C130.12 260.854 129.682 260.711 129.078 260.586C127.068 260.164 126.062 259.31 126.062 258.023C126.062 257.273 126.372 256.648 126.992 256.148C127.617 255.643 128.432 255.391 129.438 255.391C130.51 255.391 131.367 255.643 132.008 256.148C132.654 256.654 132.977 257.31 132.977 258.117H130.719C130.719 257.794 130.615 257.529 130.406 257.32C130.198 257.107 129.872 257 129.43 257C129.049 257 128.755 257.086 128.547 257.258C128.339 257.43 128.234 257.648 128.234 257.914C128.234 258.164 128.352 258.367 128.586 258.523C128.826 258.674 129.227 258.807 129.789 258.922C130.352 259.031 130.826 259.156 131.211 259.297C132.404 259.734 133 260.492 133 261.57C133 262.341 132.669 262.966 132.008 263.445C131.346 263.919 130.492 264.156 129.445 264.156C128.737 264.156 128.107 264.031 127.555 263.781C127.008 263.526 126.578 263.18 126.266 262.742C125.953 262.299 125.797 261.823 125.797 261.312H127.938C127.958 261.714 128.107 262.021 128.383 262.234C128.659 262.448 129.029 262.555 129.492 262.555C129.924 262.555 130.25 262.474 130.469 262.312C130.693 262.146 130.805 261.93 130.805 261.664ZM146.062 259.852C146.062 261.206 145.773 262.263 145.195 263.023C144.617 263.779 143.81 264.156 142.773 264.156C141.857 264.156 141.125 263.805 140.578 263.102L140.477 264H138.445V252H140.703V256.305C141.224 255.695 141.909 255.391 142.758 255.391C143.789 255.391 144.596 255.771 145.18 256.531C145.768 257.286 146.062 258.352 146.062 259.727V259.852ZM143.805 259.688C143.805 258.833 143.669 258.211 143.398 257.82C143.128 257.424 142.724 257.227 142.188 257.227C141.469 257.227 140.974 257.521 140.703 258.109V261.445C140.979 262.039 141.479 262.336 142.203 262.336C142.932 262.336 143.411 261.977 143.641 261.258C143.75 260.914 143.805 260.391 143.805 259.688ZM151.352 264.156C150.112 264.156 149.102 263.776 148.32 263.016C147.544 262.255 147.156 261.242 147.156 259.977V259.758C147.156 258.909 147.32 258.151 147.648 257.484C147.977 256.812 148.44 256.297 149.039 255.938C149.643 255.573 150.331 255.391 151.102 255.391C152.258 255.391 153.167 255.755 153.828 256.484C154.495 257.214 154.828 258.247 154.828 259.586V260.508H149.445C149.518 261.06 149.737 261.503 150.102 261.836C150.471 262.169 150.938 262.336 151.5 262.336C152.37 262.336 153.049 262.021 153.539 261.391L154.648 262.633C154.31 263.112 153.852 263.487 153.273 263.758C152.695 264.023 152.055 264.156 151.352 264.156ZM151.094 257.219C150.646 257.219 150.281 257.37 150 257.672C149.724 257.974 149.547 258.406 149.469 258.969H152.609V258.789C152.599 258.289 152.464 257.904 152.203 257.633C151.943 257.357 151.573 257.219 151.094 257.219ZM158.5 264H156.234V255.547H158.5V264ZM156.102 253.359C156.102 253.021 156.214 252.742 156.438 252.523C156.667 252.305 156.977 252.195 157.367 252.195C157.753 252.195 158.06 252.305 158.289 252.523C158.518 252.742 158.633 253.021 158.633 253.359C158.633 253.703 158.516 253.984 158.281 254.203C158.052 254.422 157.747 254.531 157.367 254.531C156.987 254.531 156.68 254.422 156.445 254.203C156.216 253.984 156.102 253.703 156.102 253.359ZM162.445 255.547L162.516 256.523C163.12 255.768 163.93 255.391 164.945 255.391C165.841 255.391 166.508 255.654 166.945 256.18C167.383 256.706 167.607 257.492 167.617 258.539V264H165.359V258.594C165.359 258.115 165.255 257.768 165.047 257.555C164.839 257.336 164.492 257.227 164.008 257.227C163.372 257.227 162.896 257.497 162.578 258.039V264H160.32V255.547H162.445ZM169.008 259.711C169.008 258.414 169.315 257.37 169.93 256.578C170.549 255.786 171.383 255.391 172.43 255.391C173.357 255.391 174.078 255.708 174.594 256.344L174.688 255.547H176.734V263.719C176.734 264.458 176.565 265.102 176.227 265.648C175.893 266.195 175.422 266.612 174.812 266.898C174.203 267.185 173.49 267.328 172.672 267.328C172.052 267.328 171.448 267.203 170.859 266.953C170.271 266.708 169.826 266.391 169.523 266L170.523 264.625C171.086 265.255 171.768 265.57 172.57 265.57C173.169 265.57 173.635 265.409 173.969 265.086C174.302 264.768 174.469 264.315 174.469 263.727V263.273C173.948 263.862 173.263 264.156 172.414 264.156C171.398 264.156 170.576 263.76 169.945 262.969C169.32 262.172 169.008 261.117 169.008 259.805V259.711ZM171.266 259.875C171.266 260.641 171.419 261.242 171.727 261.68C172.034 262.112 172.456 262.328 172.992 262.328C173.68 262.328 174.172 262.07 174.469 261.555V258C174.167 257.484 173.68 257.227 173.008 257.227C172.466 257.227 172.039 257.448 171.727 257.891C171.419 258.333 171.266 258.995 171.266 259.875ZM187.523 263.141C186.966 263.818 186.195 264.156 185.211 264.156C184.305 264.156 183.612 263.896 183.133 263.375C182.659 262.854 182.417 262.091 182.406 261.086V255.547H184.664V261.008C184.664 261.888 185.065 262.328 185.867 262.328C186.633 262.328 187.159 262.062 187.445 261.531V255.547H189.711V264H187.586L187.523 263.141ZM193.492 255.547L193.562 256.523C194.167 255.768 194.977 255.391 195.992 255.391C196.888 255.391 197.555 255.654 197.992 256.18C198.43 256.706 198.654 257.492 198.664 258.539V264H196.406V258.594C196.406 258.115 196.302 257.768 196.094 257.555C195.885 257.336 195.539 257.227 195.055 257.227C194.419 257.227 193.943 257.497 193.625 258.039V264H191.367V255.547H193.492ZM200.031 259.711C200.031 258.393 200.326 257.344 200.914 256.562C201.508 255.781 202.318 255.391 203.344 255.391C204.167 255.391 204.846 255.698 205.383 256.312V252H207.648V264H205.609L205.5 263.102C204.938 263.805 204.214 264.156 203.328 264.156C202.333 264.156 201.534 263.766 200.93 262.984C200.331 262.198 200.031 261.107 200.031 259.711ZM202.289 259.875C202.289 260.667 202.427 261.273 202.703 261.695C202.979 262.117 203.38 262.328 203.906 262.328C204.604 262.328 205.096 262.034 205.383 261.445V258.109C205.102 257.521 204.615 257.227 203.922 257.227C202.833 257.227 202.289 258.109 202.289 259.875ZM213.289 264.156C212.049 264.156 211.039 263.776 210.258 263.016C209.482 262.255 209.094 261.242 209.094 259.977V259.758C209.094 258.909 209.258 258.151 209.586 257.484C209.914 256.812 210.378 256.297 210.977 255.938C211.581 255.573 212.268 255.391 213.039 255.391C214.195 255.391 215.104 255.755 215.766 256.484C216.432 257.214 216.766 258.247 216.766 259.586V260.508H211.383C211.456 261.06 211.674 261.503 212.039 261.836C212.409 262.169 212.875 262.336 213.438 262.336C214.307 262.336 214.987 262.021 215.477 261.391L216.586 262.633C216.247 263.112 215.789 263.487 215.211 263.758C214.633 264.023 213.992 264.156 213.289 264.156ZM213.031 257.219C212.583 257.219 212.219 257.37 211.938 257.672C211.661 257.974 211.484 258.406 211.406 258.969H214.547V258.789C214.536 258.289 214.401 257.904 214.141 257.633C213.88 257.357 213.51 257.219 213.031 257.219ZM222.805 257.664C222.497 257.622 222.227 257.602 221.992 257.602C221.138 257.602 220.578 257.891 220.312 258.469V264H218.055V255.547H220.188L220.25 256.555C220.703 255.779 221.331 255.391 222.133 255.391C222.383 255.391 222.617 255.424 222.836 255.492L222.805 257.664ZM227.203 261.242L228.773 255.547H231.133L228.281 264H226.125L223.273 255.547H225.633L227.203 261.242ZM236.906 264C236.802 263.797 236.727 263.544 236.68 263.242C236.133 263.852 235.422 264.156 234.547 264.156C233.719 264.156 233.031 263.917 232.484 263.438C231.943 262.958 231.672 262.354 231.672 261.625C231.672 260.729 232.003 260.042 232.664 259.562C233.331 259.083 234.292 258.841 235.547 258.836H236.586V258.352C236.586 257.961 236.484 257.648 236.281 257.414C236.083 257.18 235.768 257.062 235.336 257.062C234.956 257.062 234.656 257.154 234.438 257.336C234.224 257.518 234.117 257.768 234.117 258.086H231.859C231.859 257.596 232.01 257.143 232.312 256.727C232.615 256.31 233.042 255.984 233.594 255.75C234.146 255.51 234.766 255.391 235.453 255.391C236.495 255.391 237.32 255.654 237.93 256.18C238.544 256.701 238.852 257.435 238.852 258.383V262.047C238.857 262.849 238.969 263.456 239.188 263.867V264H236.906ZM235.039 262.43C235.372 262.43 235.68 262.357 235.961 262.211C236.242 262.06 236.451 261.859 236.586 261.609V260.156H235.742C234.612 260.156 234.01 260.547 233.938 261.328L233.93 261.461C233.93 261.742 234.029 261.974 234.227 262.156C234.424 262.339 234.695 262.43 235.039 262.43ZM242.969 264H240.703V252H242.969V264ZM249.898 263.141C249.341 263.818 248.57 264.156 247.586 264.156C246.68 264.156 245.987 263.896 245.508 263.375C245.034 262.854 244.792 262.091 244.781 261.086V255.547H247.039V261.008C247.039 261.888 247.44 262.328 248.242 262.328C249.008 262.328 249.534 262.062 249.82 261.531V255.547H252.086V264H249.961L249.898 263.141ZM257.68 264.156C256.44 264.156 255.43 263.776 254.648 263.016C253.872 262.255 253.484 261.242 253.484 259.977V259.758C253.484 258.909 253.648 258.151 253.977 257.484C254.305 256.812 254.768 256.297 255.367 255.938C255.971 255.573 256.659 255.391 257.43 255.391C258.586 255.391 259.495 255.755 260.156 256.484C260.823 257.214 261.156 258.247 261.156 259.586V260.508H255.773C255.846 261.06 256.065 261.503 256.43 261.836C256.799 262.169 257.266 262.336 257.828 262.336C258.698 262.336 259.378 262.021 259.867 261.391L260.977 262.633C260.638 263.112 260.18 263.487 259.602 263.758C259.023 264.023 258.383 264.156 257.68 264.156ZM257.422 257.219C256.974 257.219 256.609 257.37 256.328 257.672C256.052 257.974 255.875 258.406 255.797 258.969H258.938V258.789C258.927 258.289 258.792 257.904 258.531 257.633C258.271 257.357 257.901 257.219 257.422 257.219ZM262.094 259.711C262.094 258.393 262.388 257.344 262.977 256.562C263.57 255.781 264.38 255.391 265.406 255.391C266.229 255.391 266.909 255.698 267.445 256.312V252H269.711V264H267.672L267.562 263.102C267 263.805 266.276 264.156 265.391 264.156C264.396 264.156 263.596 263.766 262.992 262.984C262.393 262.198 262.094 261.107 262.094 259.711ZM264.352 259.875C264.352 260.667 264.49 261.273 264.766 261.695C265.042 262.117 265.443 262.328 265.969 262.328C266.667 262.328 267.159 262.034 267.445 261.445V258.109C267.164 257.521 266.677 257.227 265.984 257.227C264.896 257.227 264.352 258.109 264.352 259.875Z" fill="#353535"/>
    <rect x="39" y="314" width="232" height="26" rx="2" fill="#77B5AF"/>
    <path d="M128.967 328.345H126.213L125.637 330H124.353L127.038 322.891H128.146L130.837 330H129.548L128.967 328.345ZM126.56 327.349H128.62L127.59 324.399L126.56 327.349ZM132.883 327.358V330H131.647V322.891H134.367C135.161 322.891 135.791 323.097 136.257 323.511C136.726 323.924 136.96 324.471 136.96 325.151C136.96 325.848 136.73 326.39 136.271 326.777C135.816 327.165 135.176 327.358 134.353 327.358H132.883ZM132.883 326.367H134.367C134.807 326.367 135.142 326.265 135.373 326.06C135.604 325.851 135.72 325.552 135.72 325.161C135.72 324.777 135.603 324.471 135.368 324.243C135.134 324.012 134.812 323.893 134.401 323.887H132.883V326.367ZM139.279 327.358V330H138.044V322.891H140.764C141.558 322.891 142.188 323.097 142.653 323.511C143.122 323.924 143.356 324.471 143.356 325.151C143.356 325.848 143.127 326.39 142.668 326.777C142.212 327.165 141.573 327.358 140.749 327.358H139.279ZM139.279 326.367H140.764C141.203 326.367 141.538 326.265 141.77 326.06C142.001 325.851 142.116 325.552 142.116 325.161C142.116 324.777 141.999 324.471 141.765 324.243C141.53 324.012 141.208 323.893 140.798 323.887H139.279V326.367ZM148.596 326.826H145.676V329.014H149.089V330H144.44V322.891H149.055V323.887H145.676V325.85H148.596V326.826ZM154.074 328.345H151.32L150.744 330H149.46L152.146 322.891H153.254L155.944 330H154.655L154.074 328.345ZM151.667 327.349H153.728L152.697 324.399L151.667 327.349ZM157.99 329.014H161.218V330H156.755V322.891H157.99V329.014ZM170.295 330H169.06L165.891 324.956V330H164.655V322.891H165.891L169.069 327.954V322.891H170.295V330ZM177.429 326.631C177.429 327.327 177.308 327.939 177.067 328.467C176.826 328.991 176.481 329.395 176.032 329.678C175.586 329.958 175.072 330.098 174.489 330.098C173.913 330.098 173.399 329.958 172.946 329.678C172.497 329.395 172.149 328.993 171.901 328.472C171.657 327.951 171.534 327.35 171.53 326.67V326.27C171.53 325.576 171.652 324.964 171.896 324.434C172.144 323.903 172.491 323.498 172.937 323.218C173.386 322.935 173.9 322.793 174.479 322.793C175.059 322.793 175.572 322.933 176.018 323.213C176.467 323.49 176.813 323.89 177.058 324.414C177.302 324.935 177.425 325.542 177.429 326.235V326.631ZM176.193 326.26C176.193 325.472 176.044 324.868 175.744 324.448C175.448 324.028 175.026 323.818 174.479 323.818C173.946 323.818 173.527 324.028 173.225 324.448C172.925 324.865 172.772 325.456 172.766 326.221V326.631C172.766 327.412 172.917 328.016 173.22 328.442C173.526 328.869 173.949 329.082 174.489 329.082C175.036 329.082 175.456 328.874 175.749 328.457C176.045 328.04 176.193 327.432 176.193 326.631V326.26ZM184.235 328.242L185.329 322.891H186.555L184.914 330H183.732L182.38 324.81L180.998 330H179.812L178.171 322.891H179.396L180.5 328.232L181.857 322.891H182.893L184.235 328.242Z" fill="white"/>
    <path d="M121.587 364H120.352L117.183 358.956V364H115.947V356.891H117.183L120.361 361.954V356.891H121.587V364ZM128.721 360.631C128.721 361.327 128.6 361.939 128.359 362.467C128.118 362.991 127.773 363.395 127.324 363.678C126.878 363.958 126.364 364.098 125.781 364.098C125.205 364.098 124.691 363.958 124.238 363.678C123.789 363.395 123.441 362.993 123.193 362.472C122.949 361.951 122.826 361.35 122.822 360.67V360.27C122.822 359.576 122.944 358.964 123.188 358.434C123.436 357.903 123.783 357.498 124.229 357.218C124.678 356.935 125.192 356.793 125.771 356.793C126.351 356.793 126.864 356.933 127.31 357.213C127.759 357.49 128.105 357.89 128.35 358.414C128.594 358.935 128.717 359.542 128.721 360.235V360.631ZM127.485 360.26C127.485 359.472 127.336 358.868 127.036 358.448C126.74 358.028 126.318 357.818 125.771 357.818C125.238 357.818 124.819 358.028 124.517 358.448C124.217 358.865 124.064 359.456 124.058 360.221V360.631C124.058 361.412 124.209 362.016 124.512 362.442C124.818 362.869 125.241 363.082 125.781 363.082C126.328 363.082 126.748 362.874 127.041 362.457C127.337 362.04 127.485 361.432 127.485 360.631V360.26ZM134.668 357.887H132.451V364H131.226V357.887H129.028V356.891H134.668V357.887ZM139.106 364H137.876V356.891H139.106V364ZM146.265 364H145.029L141.86 358.956V364H140.625V356.891H141.86L145.039 361.954V356.891H146.265V364ZM152.715 357.887H150.498V364H149.272V357.887H147.075V356.891H152.715V357.887ZM157.808 360.826H154.888V363.014H158.301V364H153.652V356.891H158.267V357.887H154.888V359.85H157.808V360.826ZM161.919 361.261H160.542V364H159.307V356.891H161.807C162.627 356.891 163.26 357.075 163.706 357.442C164.152 357.81 164.375 358.342 164.375 359.039C164.375 359.514 164.259 359.913 164.028 360.235C163.8 360.554 163.481 360.8 163.071 360.973L164.668 363.937V364H163.345L161.919 361.261ZM160.542 360.27H161.812C162.228 360.27 162.554 360.165 162.788 359.957C163.022 359.745 163.14 359.457 163.14 359.093C163.14 358.712 163.031 358.417 162.812 358.209C162.598 358.001 162.275 357.893 161.846 357.887H160.542V360.27ZM169.702 360.826H166.782V363.014H170.195V364H165.547V356.891H170.161V357.887H166.782V359.85H169.702V360.826ZM174.917 362.169C174.917 361.856 174.806 361.616 174.585 361.446C174.367 361.277 173.971 361.106 173.398 360.934C172.826 360.761 172.37 360.569 172.031 360.357C171.383 359.951 171.06 359.42 171.06 358.766C171.06 358.193 171.292 357.721 171.758 357.35C172.227 356.979 172.834 356.793 173.579 356.793C174.074 356.793 174.515 356.884 174.902 357.066C175.29 357.249 175.594 357.509 175.815 357.848C176.037 358.183 176.147 358.556 176.147 358.966H174.917C174.917 358.595 174.8 358.305 174.565 358.097C174.334 357.885 174.002 357.779 173.569 357.779C173.166 357.779 172.852 357.866 172.627 358.038C172.406 358.211 172.295 358.451 172.295 358.761C172.295 359.021 172.415 359.239 172.656 359.415C172.897 359.588 173.294 359.757 173.848 359.923C174.401 360.086 174.845 360.273 175.181 360.484C175.516 360.693 175.762 360.934 175.918 361.207C176.074 361.477 176.152 361.795 176.152 362.159C176.152 362.752 175.924 363.224 175.469 363.575C175.016 363.924 174.401 364.098 173.623 364.098C173.109 364.098 172.635 364.003 172.202 363.814C171.772 363.622 171.437 363.359 171.196 363.023C170.959 362.688 170.84 362.298 170.84 361.852H172.075C172.075 362.255 172.209 362.568 172.476 362.789C172.743 363.01 173.125 363.121 173.623 363.121C174.053 363.121 174.375 363.035 174.59 362.862C174.808 362.687 174.917 362.455 174.917 362.169ZM182.373 357.887H180.156V364H178.931V357.887H176.733V356.891H182.373V357.887ZM187.466 360.826H184.546V363.014H187.959V364H183.311V356.891H187.925V357.887H184.546V359.85H187.466V360.826ZM188.965 364V356.891H191.064C191.693 356.891 192.249 357.031 192.734 357.311C193.223 357.59 193.6 357.988 193.867 358.502C194.134 359.016 194.268 359.605 194.268 360.27V360.626C194.268 361.3 194.132 361.892 193.862 362.403C193.595 362.914 193.213 363.308 192.715 363.585C192.22 363.862 191.652 364 191.011 364H188.965ZM190.2 357.887V363.014H191.006C191.654 363.014 192.15 362.812 192.495 362.408C192.843 362.001 193.021 361.419 193.027 360.66V360.265C193.027 359.493 192.86 358.904 192.524 358.497C192.189 358.09 191.702 357.887 191.064 357.887H190.2Z" fill="#77B5AF"/>
    <defs>
    <filter id="filter0_d" x="0" y="0" width="311" height="435" filterUnits="userSpaceOnUse" color-interpolation-filters="sRGB">
    <feFlood flood-opacity="0" result="BackgroundImageFix"/>
    <feColorMatrix in="SourceAlpha" type="matrix" values="0 0 0 0 0 0 0 0 0 0 0 0 0 0 0 0 0 0 127 0"/>
    <feOffset dy="8"/>
    <feGaussianBlur stdDeviation="8"/>
    <feColorMatrix type="matrix" values="0 0 0 0 0 0 0 0 0 0 0 0 0 0 0 0 0 0 0.15 0"/>
    <feBlend mode="normal" in2="BackgroundImageFix" result="effect1_dropShadow"/>
    <feBlend mode="normal" in="SourceGraphic" in2="effect1_dropShadow" result="shape"/>
    </filter>
    </defs>
</svg>
