<svg width="766" height="474" viewBox="0 0 766 474" fill="none" xmlns="http://www.w3.org/2000/svg">
<g clip-path="url(#clip0)">
<path d="M16.2224 312.271C21.065 321.256 31.3429 325.112 31.3429 325.112C31.3429 325.112 33.7692 314.403 28.9266 305.419C24.0839 296.434 13.8061 292.577 13.8061 292.577C13.8061 292.577 11.3797 303.287 16.2224 312.271Z" fill="#3F3D56"/>
<path d="M19.5509 309.316C28.2939 314.578 31.6611 325.03 31.6611 325.03C31.6611 325.03 20.8531 326.95 12.1101 321.688C3.36717 316.426 0 305.974 0 305.974C0 305.974 10.8079 304.054 19.5509 309.316Z" fill="#63B7AF"/>
<path d="M477.249 163.22C477.249 235.055 434.56 260.137 381.901 260.137C329.242 260.137 286.553 235.055 286.553 163.22C286.553 91.3854 381.901 3.05176e-05 381.901 3.05176e-05C381.901 3.05176e-05 477.249 91.3854 477.249 163.22Z" fill="#F2F2F2"/>
<path d="M378.428 249.149L379.404 189.029L420.044 114.653L379.557 179.598L379.996 152.566L408.005 98.7558L380.112 145.413L380.902 96.7942L410.895 53.9543L381.026 89.1488L381.519 0L378.42 118.017L378.674 113.149L348.181 66.4559L378.185 122.495L375.344 176.793L375.259 175.352L340.106 126.215L375.153 180.443L374.797 187.234L374.734 187.336L374.763 187.894L367.554 325.654H377.185L378.341 254.497L413.302 200.402L378.428 249.149Z" fill="#3F3D56"/>
<path d="M743.84 163.22C743.84 235.055 701.151 260.137 648.492 260.137C595.833 260.137 553.145 235.055 553.145 163.22C553.145 91.3854 648.492 3.05176e-05 648.492 3.05176e-05C648.492 3.05176e-05 743.84 91.3854 743.84 163.22Z" fill="#F2F2F2"/>
<path d="M645.019 249.149L645.995 189.029L686.635 114.653L646.148 179.598L646.587 152.566L674.596 98.7558L646.704 145.413L647.493 96.7942L677.486 53.9543L647.617 89.1488L648.11 0L645.011 118.017L645.265 113.149L614.772 66.4559L644.776 122.495L641.935 176.793L641.851 175.352L606.697 126.215L641.744 180.443L641.389 187.234L641.325 187.336L641.354 187.894L634.146 325.654H643.776L644.932 254.497L679.893 200.402L645.019 249.149Z" fill="#3F3D56"/>
<path d="M73.3398 220.868C93.4835 220.868 109.813 204.532 109.813 184.381C109.813 164.23 93.4835 147.894 73.3398 147.894C53.1961 147.894 36.8665 164.23 36.8665 184.381C36.8665 204.532 53.1961 220.868 73.3398 220.868Z" fill="#FF9C65"/>
<path d="M27.0639 253.011L21.71 244.084L71.6813 201.235H200.18V213.733L153.778 263.723L100.237 274.436L27.0639 253.011Z" fill="#3F3D56"/>
<path d="M222.3 226.381V198.447H205.477V207.256L200.18 201.235L157.347 244.084L150.208 251.225L141.285 286.933L157.347 326.211H239.444V245.869L222.3 226.381Z" fill="#CCCCCC"/>
<path d="M157.347 244.084H21.7097V326.211H157.347V244.084Z" fill="#F2F2F2"/>
<path d="M138.608 269.972H110.053V294.967H138.608V269.972Z" fill="#3F3D56"/>
<path d="M98.4522 269.079H73.4663V326.211H98.4522V269.079Z" fill="#CCCCCC"/>
<path d="M44.9108 278.006V269.08H34.2029V278.006H44.0184H44.9108Z" fill="#3F3D56"/>
<path d="M44.0184 285.148H34.2029V294.075H44.9108V285.148H44.0184Z" fill="#3F3D56"/>
<path d="M62.758 269.079H52.0498V278.006H62.758V269.079Z" fill="#3F3D56"/>
<path d="M62.758 285.148H52.0498V294.075H62.758V285.148Z" fill="#3F3D56"/>
<path d="M195.719 278.899V269.972H185.01V278.899H194.826H195.719Z" fill="#3F3D56"/>
<path d="M194.826 286.04H185.01V294.967H195.719V286.04H194.826Z" fill="#3F3D56"/>
<path d="M213.566 269.972H202.857V278.899H213.566V269.972Z" fill="#3F3D56"/>
<path d="M213.566 286.04H202.857V294.967H213.566V286.04Z" fill="#3F3D56"/>
<path d="M284.596 252.962L279.242 244.035L329.214 201.186H457.712V213.684L411.31 263.675L357.769 274.387L284.596 252.962Z" fill="#3F3D56"/>
<path d="M479.832 226.332V198.398H463.008V207.206L457.712 201.186L414.88 244.035L407.741 251.176L398.817 286.884L414.88 326.162H496.975V245.82L479.832 226.332Z" fill="#CCCCCC"/>
<path d="M414.879 244.035H279.242V326.162H414.879V244.035Z" fill="#F2F2F2"/>
<path d="M396.14 269.923H367.585V294.918H396.14V269.923Z" fill="#3F3D56"/>
<path d="M355.984 269.03H330.998V326.162H355.984V269.03Z" fill="#CCCCCC"/>
<path d="M302.443 277.957V269.03H291.735V277.957H301.551H302.443Z" fill="#3F3D56"/>
<path d="M301.551 285.099H291.735V294.026H302.443V285.099H301.551Z" fill="#3F3D56"/>
<path d="M320.29 269.03H309.582V277.957H320.29V269.03Z" fill="#3F3D56"/>
<path d="M320.29 285.099H309.582V294.026H320.29V285.099Z" fill="#3F3D56"/>
<path d="M453.25 278.85V269.923H442.542V278.85H452.358H453.25Z" fill="#3F3D56"/>
<path d="M452.358 285.991H442.542V294.918H453.25V285.991H452.358Z" fill="#3F3D56"/>
<path d="M471.097 269.923H460.389V278.85H471.097V269.923Z" fill="#3F3D56"/>
<path d="M471.097 285.991H460.389V294.918H471.097V285.991Z" fill="#3F3D56"/>
<path d="M534.399 252.962L529.045 244.035L579.017 201.186H707.515V213.684L661.113 263.675L607.572 274.387L534.399 252.962Z" fill="#3F3D56"/>
<path d="M729.636 226.332V198.398H712.811V207.206L707.515 201.186L664.683 244.035L657.544 251.176L648.62 286.884L664.683 326.162H746.779V245.82L729.636 226.332Z" fill="#CCCCCC"/>
<path d="M664.682 244.035H529.045V326.162H664.682V244.035Z" fill="#F2F2F2"/>
<path d="M645.943 269.923H617.388V294.918H645.943V269.923Z" fill="#3F3D56"/>
<path d="M605.787 269.03H580.801V326.162H605.787V269.03Z" fill="#CCCCCC"/>
<path d="M552.246 277.957V269.03H541.538V277.957H551.354H552.246Z" fill="#3F3D56"/>
<path d="M551.354 285.099H541.538V294.026H552.246V285.099H551.354Z" fill="#3F3D56"/>
<path d="M570.093 269.03H559.385V277.957H570.093V269.03Z" fill="#3F3D56"/>
<path d="M570.093 285.099H559.385V294.026H570.093V285.099Z" fill="#3F3D56"/>
<path d="M703.054 278.85V269.923H692.346V278.85H702.161H703.054Z" fill="#3F3D56"/>
<path d="M702.161 285.991H692.346V294.918H703.054V285.991H702.161Z" fill="#3F3D56"/>
<path d="M720.901 269.923H710.192V278.85H720.901V269.923Z" fill="#3F3D56"/>
<path d="M720.901 285.991H710.192V294.918H720.901V285.991Z" fill="#3F3D56"/>
<path d="M511.077 273.139H509.734V326.208H511.077V273.139Z" fill="#3F3D56"/>
<path d="M523.472 279.902C523.557 298.459 510.506 313.563 510.506 313.563C510.506 313.563 497.317 298.58 497.231 280.023C497.146 261.466 510.197 246.362 510.197 246.362C510.197 246.362 523.386 261.345 523.472 279.902Z" fill="#63B7AF"/>
<path d="M266.646 271.795H265.303V324.865H266.646V271.795Z" fill="#3F3D56"/>
<path d="M279.041 278.558C279.127 297.115 266.076 312.219 266.076 312.219C266.076 312.219 252.886 297.236 252.8 278.679C252.715 260.122 265.766 245.018 265.766 245.018C265.766 245.018 278.956 260.001 279.041 278.558Z" fill="#63B7AF"/>
<path opacity="0.1" d="M279.041 278.558C279.127 297.115 266.076 312.219 266.076 312.219C266.076 312.219 252.886 297.236 252.8 278.679C252.715 260.122 265.766 245.018 265.766 245.018C265.766 245.018 278.956 260.001 279.041 278.558Z" fill="black"/>
<path d="M249.187 271.795H247.844V324.865H249.187V271.795Z" fill="#3F3D56"/>
<path d="M261.582 278.558C261.667 297.115 248.616 312.219 248.616 312.219C248.616 312.219 235.426 297.236 235.341 278.679C235.255 260.122 248.306 245.018 248.306 245.018C248.306 245.018 261.496 260.001 261.582 278.558Z" fill="#63B7AF"/>
<path d="M766 324.868H2.48877V326.211H766V324.868Z" fill="#3F3D56"/>
<path d="M175.351 284.67C175.351 284.67 176.039 285.458 174.86 286.984C173.682 288.51 174.633 291.821 176.872 291.905C179.111 291.989 180.197 292.927 179.657 294.163C179.118 295.399 178.469 298.336 180.907 297.889C183.346 297.443 184.117 298.414 183.685 299.16C183.253 299.907 184.772 297.676 184.772 297.676C184.772 297.676 186.131 299.701 187.799 298.283C189.467 296.866 190.13 284.015 186.73 283.797C183.33 283.579 175.351 284.67 175.351 284.67Z" fill="#2F2E41"/>
<path d="M192.588 345.782L193.362 351.208H196.85L195.687 345.007L192.588 345.782Z" fill="#FFB8B8"/>
<path d="M197.237 347.914C197.237 347.914 201.886 352.177 200.724 352.564C199.561 352.952 195.3 357.603 194.525 357.99C193.832 358.337 186.389 360.703 187.551 357.99C188.406 356.226 189.751 354.746 191.426 353.727L192.2 349.076L197.237 347.914Z" fill="#F2F2F2"/>
<path opacity="0.1" d="M197.237 347.914C197.237 347.914 201.886 352.177 200.724 352.564C199.561 352.952 195.3 357.603 194.525 357.99C193.832 358.337 186.389 360.703 187.551 357.99C188.406 356.226 189.751 354.746 191.426 353.727L192.2 349.076L197.237 347.914Z" fill="black"/>
<path d="M197.237 341.713L198.012 347.139H201.499L200.336 340.938L197.237 341.713Z" fill="#FFB8B8"/>
<path d="M182.668 327.31L187.745 310.514C187.745 310.514 179.222 302.763 185.033 300.437C190.845 298.112 192.394 309.739 192.394 309.739L190.457 329.892H182.709L182.668 327.31Z" fill="#FFB8B8"/>
<path d="M194.525 314.971C194.525 314.971 184.512 327.818 186.032 329.727C187.551 331.636 190.263 343.263 190.263 343.263C190.263 343.263 189.876 347.914 191.426 347.914C192.975 347.914 196.849 347.139 196.849 345.976C196.849 344.813 193.363 330.086 193.363 330.086L203.435 316.909L194.525 314.971Z" fill="#63B7AF"/>
<path d="M195.3 315.746L205.373 310.32C205.373 310.32 212.346 313.808 210.409 316.909C208.472 320.009 199.561 328.148 199.561 328.148C199.561 328.148 202.273 341.325 201.886 341.713C201.498 342.1 197.237 343.65 196.074 343.263C194.912 342.875 188.714 327.76 190.263 326.985C191.813 326.21 196.849 318.071 196.849 318.071L195.3 315.746Z" fill="#63B7AF"/>
<path d="M167.793 464.027C167.793 464.027 174.767 468.29 175.542 468.29C176.316 468.29 186.777 471.003 182.128 472.941C177.479 474.878 159.658 472.166 160.045 471.003C160.432 469.84 160.045 462.864 160.82 462.864C161.595 462.864 167.793 464.027 167.793 464.027Z" fill="#2F2E41"/>
<path d="M175.542 463.407C175.542 463.407 182.515 467.67 183.29 467.67C184.065 467.67 194.525 470.383 189.876 472.321C185.227 474.258 167.406 471.545 167.793 470.383C168.181 469.22 167.793 462.244 168.568 462.244C169.343 462.244 175.542 463.407 175.542 463.407Z" fill="#2F2E41"/>
<path d="M167.509 382.587C167.509 382.587 169.343 393.103 171.28 397.366C173.217 401.629 170.893 421.783 169.73 424.883C168.568 427.984 157.333 464.802 160.82 465.189C164.307 465.577 171.28 465.189 171.28 465.189L182.515 429.921L180.578 382.639L167.509 382.587Z" fill="#575A88"/>
<path opacity="0.1" d="M167.509 382.587C167.509 382.587 169.343 393.103 171.28 397.366C173.217 401.629 170.893 421.783 169.73 424.883C168.568 427.984 157.333 464.802 160.82 465.189C164.307 465.577 171.28 465.189 171.28 465.189L182.515 429.921L180.578 382.639L167.509 382.587Z" fill="black"/>
<path d="M170.505 381.631C170.505 381.631 172.055 392.096 175.542 394.421C179.028 396.746 177.866 399.072 177.866 399.072L176.316 419.612C176.316 419.612 161.207 456.818 165.856 461.469C170.505 466.12 174.767 464.182 176.704 463.794C178.641 463.407 182.128 455.268 180.191 452.943C178.254 450.617 184.065 436.665 185.614 434.34C187.164 432.014 185.614 428.914 187.552 428.139C189.489 427.364 193.75 422.325 193.75 418.837C193.75 415.349 199.174 378.143 195.687 375.818C192.2 373.493 169.851 380.617 169.851 380.617L170.505 381.631Z" fill="#575A88"/>
<path d="M163.144 327.373C167.852 327.373 171.668 323.556 171.668 318.847C171.668 314.138 167.852 310.32 163.144 310.32C158.437 310.32 154.621 314.138 154.621 318.847C154.621 323.556 158.437 327.373 163.144 327.373Z" fill="#FFB8B8"/>
<path d="M182.515 294.818C186.367 294.818 189.489 291.695 189.489 287.842C189.489 283.989 186.367 280.866 182.515 280.866C178.664 280.866 175.542 283.989 175.542 287.842C175.542 291.695 178.664 294.818 182.515 294.818Z" fill="#FFB8B8"/>
<path d="M168.956 318.847C168.956 318.847 173.605 327.373 175.929 327.373C178.254 327.373 166.631 336.287 166.631 336.287C166.631 336.287 162.757 325.048 161.982 324.66C161.207 324.272 168.956 318.847 168.956 318.847Z" fill="#FFB8B8"/>
<path d="M170.505 326.598C170.505 326.598 160.432 330.086 160.82 331.249C161.207 332.411 158.108 335.124 158.108 336.287C158.108 337.45 157.333 347.914 161.982 356.44C166.631 364.966 173.992 371.167 170.505 375.043C167.019 378.918 161.595 385.507 167.406 385.507C173.217 385.507 182.515 376.981 191.038 380.081C199.561 383.182 197.624 371.555 197.624 371.555C197.624 371.555 198.787 362.641 196.462 359.928C194.138 357.215 186.002 337.837 186.002 335.512C186.002 333.186 178.254 324.272 176.316 324.272C174.379 324.272 170.505 326.598 170.505 326.598Z" fill="#8985A8"/>
<path d="M184.452 292.105C184.452 292.105 187.607 298.105 187.773 299.174C187.939 300.244 193.363 292.105 193.363 292.105L187.164 287.842L184.452 292.105Z" fill="#FFB8B8"/>
<path d="M185.614 296.756L192.2 289.78L199.949 293.268C199.949 293.268 207.175 309.158 207.63 310.32C208.084 311.483 196.075 316.909 194.912 316.909C193.75 316.909 185.614 304.894 185.614 304.894C185.614 304.894 183.677 299.081 185.614 296.756Z" fill="#F2F2F2"/>
<path d="M182.515 306.057V313.033H187.164L185.635 306.057H182.515Z" fill="#FFB8B8"/>
<path d="M185.168 311.289C184.58 311.281 184.004 311.453 183.517 311.781C183.029 312.108 182.653 312.577 182.438 313.124C182.136 313.944 182.238 314.805 183.677 315.165C186.777 315.94 187.164 315.165 187.164 315.165C187.164 315.165 192.544 314.39 191.404 312.839C190.263 311.289 187.164 311.289 187.164 311.289H185.168Z" fill="#FFB8B8"/>
<path d="M201.886 344.813C201.886 344.813 206.535 349.076 205.373 349.464C204.21 349.851 199.949 354.502 199.174 354.89C198.481 355.236 191.038 357.603 192.201 354.89C193.055 353.126 194.4 351.645 196.075 350.627L196.85 345.976L201.886 344.813Z" fill="#F2F2F2"/>
<path d="M160.108 312.283C160.641 311.971 161.271 311.582 161.286 310.963C161.272 310.736 161.192 310.518 161.056 310.336C160.92 310.154 160.734 310.015 160.52 309.937C160.09 309.789 159.635 309.727 159.181 309.757C159.007 309.748 158.833 309.765 158.664 309.808C158.222 309.944 157.968 310.392 157.621 310.696C157.07 311.083 156.437 311.336 155.772 311.436C154.684 311.719 153.641 312.151 152.673 312.721C152.481 312.818 152.314 312.956 152.182 313.125C152.03 313.436 151.962 313.782 151.985 314.128C151.898 315.443 151.11 316.588 150.521 317.767C149.933 318.946 149.547 320.415 150.237 321.537C150.511 321.886 150.767 322.249 151.003 322.625C151.493 323.645 150.882 324.901 151.235 325.976C151.394 326.399 151.648 326.78 151.977 327.089C152.658 327.774 153.496 328.282 154.418 328.567C155.299 328.838 156.391 329.019 156.736 329.874C156.812 330.26 156.921 330.64 157.062 331.008C157.22 331.196 157.414 331.349 157.633 331.459C157.852 331.569 158.091 331.633 158.335 331.647C158.875 331.77 159.432 331.811 159.984 331.766C160.26 331.742 160.529 331.662 160.774 331.531C161.018 331.401 161.233 331.221 161.407 331.004C161.563 330.699 161.756 330.413 161.983 330.155C162.543 329.686 163.396 330.056 164.116 329.932C164.408 329.877 164.678 329.74 164.895 329.536C165.111 329.333 165.265 329.072 165.339 328.784C165.358 328.477 165.443 328.178 165.587 327.906C166.034 327.334 167.211 327.738 167.507 327.074C167.699 326.642 167.297 326.187 166.909 325.918C166.244 325.53 165.606 325.097 165 324.623C164.699 324.381 164.466 324.065 164.324 323.706C164.182 323.347 164.136 322.958 164.19 322.575C164.457 321.452 165.923 320.833 165.972 319.679C165.951 319.348 165.851 319.027 165.681 318.742C165.511 318.458 165.275 318.219 164.993 318.044C164.428 317.701 163.886 317.322 163.37 316.907C163.023 316.571 162.761 316.149 162.383 315.847C161.638 315.382 160.775 315.138 159.897 315.145C159.43 315.097 157.569 314.882 157.642 314.171C157.703 313.581 159.634 312.561 160.108 312.283Z" fill="#2F2E41"/>
<path d="M185.614 296.368C185.614 296.368 181.353 297.918 181.353 299.856C181.353 301.794 179.416 307.995 181.353 307.995C183.29 307.995 187.164 306.507 187.164 306.507L185.614 296.368Z" fill="#F2F2F2"/>
<path d="M184.452 324.272C184.452 324.272 195.687 320.397 196.075 320.397C196.462 320.397 201.886 317.296 201.498 316.134L199.949 306.445C199.949 306.445 193.75 293.655 198.012 293.655C202.273 293.655 204.598 303.732 204.598 303.732C204.598 303.732 213.896 321.172 208.859 325.048C203.823 328.923 182.902 335.899 181.74 334.737C180.578 333.574 184.452 324.272 184.452 324.272Z" fill="#FFB8B8"/>
<path d="M195.3 299.081L197.915 301.602L194.525 304.894C194.525 304.894 189.876 302.957 190.263 304.119C190.651 305.282 192.975 308.77 194.525 308.77C196.075 308.77 204.14 303.732 204.175 302.181C204.21 300.631 199.174 295.205 198.012 294.818C196.849 294.43 195.3 299.081 195.3 299.081Z" fill="#FFB8B8"/>
<path d="M190.383 296.38C190.383 296.38 196.075 301.406 196.849 301.406C197.624 301.406 199.033 293.854 199.033 293.854C199.033 293.854 194.441 290.86 192.739 291.676C191.038 292.492 190.383 296.38 190.383 296.38Z" fill="#F2F2F2"/>
<path d="M170.505 328.923C170.505 328.923 170.505 323.497 182.128 323.497H187.164L184.84 336.287L177.091 338.612L170.505 328.923Z" fill="#8985A8"/>
<path d="M195.893 285.014C194.754 285.009 193.616 284.939 192.485 284.804C191.597 282.657 190.465 280.855 189.242 280.183C188.252 279.424 187.153 278.821 185.982 278.394C183.401 277.297 179.104 277.981 178.852 279.228C173.773 281.656 175.057 285.92 175.057 285.92C175.846 287.589 177.616 286.85 179.119 286.094C179.258 286.697 179.582 287.242 180.046 287.651C180.51 288.061 181.09 288.316 181.705 288.379C184.186 288.473 185.389 289.512 184.791 290.881C184.193 292.25 183.474 295.503 186.175 295.009C188.877 294.514 189.731 295.59 189.252 296.417C188.774 297.244 190.457 294.772 190.457 294.772C190.457 294.772 191.962 297.016 193.81 295.445C193.997 295.265 194.13 295.037 194.195 294.786C194.775 295.128 195.459 295.248 196.121 295.123C198.334 294.132 196.96 291.806 196.96 291.806C196.96 291.806 199.914 291.353 198.962 291.428C198.01 291.503 197.408 290.269 199.019 288.044C200.63 285.819 197.386 285.065 195.893 285.014Z" fill="#2F2E41"/>
<path d="M180.905 283.27L179.802 282.903L178.701 286.213L179.804 286.58L180.905 283.27Z" fill="#63B7AF"/>
<path d="M263.036 472.656H70.3115V474H263.036V472.656Z" fill="#3F3D56"/>
<path d="M677.36 409.51H484.636V410.854H677.36V409.51Z" fill="#3F3D56"/>
<path d="M626.802 288.855L637.632 286.741C637.632 286.741 640.273 277.756 643.443 278.813C646.613 279.87 641.33 288.855 641.33 288.855L626.273 295.725L626.802 288.855Z" fill="#A0616A"/>
<path d="M561.029 297.839L556.274 303.917C556.274 303.917 549.406 303.653 551.52 307.352C553.633 311.052 558.387 308.938 558.652 308.145C558.916 307.352 566.576 300.482 566.576 300.482L561.029 297.839Z" fill="#A0616A"/>
<path d="M580.444 290.837L584.406 288.723C584.406 288.723 601.312 287.401 607.651 291.629C613.991 295.857 580.972 296.386 580.972 296.386L580.444 290.837Z" fill="#63B7AF"/>
<path d="M587.972 287.005C587.972 287.005 585.859 281.984 588.765 281.456C590.422 281.131 592.126 281.131 593.783 281.456L590.614 284.098L587.972 287.005Z" fill="#3F3D56"/>
<path opacity="0.1" d="M587.972 287.005C587.972 287.005 585.859 281.984 588.765 281.456C590.422 281.131 592.126 281.131 593.783 281.456L590.614 284.098L587.972 287.005Z" fill="black"/>
<path d="M573.444 317.394L565.783 316.865L567.104 319.243C567.104 319.243 556.538 322.414 559.972 331.399C562.384 337.446 565.3 343.28 568.689 348.839L572.123 355.445C572.123 355.445 579.255 356.502 579.519 354.388C579.783 352.274 579.519 351.217 578.198 350.16C576.986 349.068 576.232 347.558 576.085 345.932C576.085 344.875 576.349 343.818 575.557 343.29C574.764 342.761 574.5 341.969 574.5 340.383C574.5 338.798 571.595 332.984 571.595 332.984C571.595 332.984 580.84 332.72 583.746 335.098C586.651 337.476 596.16 346.461 596.16 346.461C596.686 347.011 597.131 347.634 597.481 348.311C598.01 349.368 598.01 349.896 599.066 350.425C600.123 350.953 599.33 353.067 599.066 353.331C598.802 353.596 596.16 364.165 596.16 364.165C596.16 364.165 593.255 369.186 596.425 369.45C599.594 369.715 602.5 369.979 602.764 369.45C603.058 368.718 603.411 368.011 603.821 367.336C604.613 366.015 603.821 363.108 603.821 363.108C603.821 363.108 611.481 353.331 609.104 347.254C606.726 341.176 601.708 327.435 601.708 327.435L594.047 324.264L580.047 319.243L573.444 317.394Z" fill="#2F2E41"/>
<path d="M572.915 354.124C572.915 354.124 571.33 360.202 570.802 360.466C570.274 360.73 564.462 365.751 568.425 366.544C572.387 367.336 575.293 367.072 576.085 366.279C576.878 365.487 576.613 364.694 577.934 364.43C579.255 364.166 581.632 363.373 581.368 361.523C581.104 359.673 579.783 354.653 578.991 354.124C578.198 353.596 572.915 354.124 572.915 354.124Z" fill="#2F2E41"/>
<path d="M595.896 367.601C595.896 367.601 593.519 369.45 594.84 372.886C596.161 376.321 598.01 380.02 598.01 380.02C598.01 380.02 600.123 386.627 603.557 385.57C604.175 385.35 604.724 384.973 605.15 384.475C605.577 383.976 605.865 383.375 605.986 382.73C606.229 381.794 606.269 380.817 606.103 379.864C605.938 378.911 605.571 378.005 605.027 377.205L603.028 374.207L600.915 368.658L595.896 367.601Z" fill="#2F2E41"/>
<path d="M589.293 289.912C589.293 289.912 586.123 289.648 585.595 290.44C585.066 291.233 582.689 301.803 585.595 302.86C588.5 303.917 597.217 305.767 598.538 304.445C599.859 303.124 600.387 291.497 600.387 291.497L589.293 289.912Z" fill="#A0616A"/>
<path opacity="0.1" d="M589.293 289.912C589.293 289.912 586.123 289.648 585.595 290.44C585.066 291.233 582.689 301.803 585.595 302.86C588.5 303.917 597.217 305.767 598.538 304.445C599.859 303.124 600.387 291.497 600.387 291.497L589.293 289.912Z" fill="black"/>
<path d="M584.538 298.632C584.538 298.632 588.236 302.331 590.613 301.803C592.991 301.274 598.538 298.896 599.066 297.839C599.594 296.782 606.198 296.518 606.198 296.518L599.066 316.337L604.085 332.984C604.085 332.984 606.991 329.549 599.066 329.285C591.142 329.02 580.576 325.057 578.727 319.772C578.727 319.772 567.104 318.186 566.576 317.922C566.048 317.658 567.897 316.072 567.897 316.072L575.557 313.958L581.104 306.824L584.538 298.632Z" fill="#F2F2F2"/>
<path d="M586.915 290.44C586.915 290.44 588.236 288.59 586.915 288.59C584.799 288.547 582.681 288.635 580.576 288.855C579.255 289.119 574.236 287.798 573.708 289.383C573.18 290.969 573.18 300.746 574.236 301.539C575.293 302.331 575.821 302.331 574.5 303.917C573.18 305.502 570.01 310.787 570.802 312.637C571.595 314.487 562.35 315.015 563.67 317.129C564.029 317.733 564.529 318.241 565.127 318.61C565.725 318.978 566.404 319.195 567.104 319.243C567.104 319.243 567.633 315.015 570.802 317.129C573.972 319.243 578.199 324.528 581.632 321.093C585.066 317.658 586.387 314.487 586.651 309.995C586.928 306.639 586.75 303.261 586.123 299.953C585.595 297.311 586.915 290.44 586.915 290.44Z" fill="#63B7AF"/>
<path d="M600.651 295.461C600.651 295.461 602.764 297.311 600.651 301.803C598.538 306.295 592.99 316.865 597.481 323.735C601.972 330.606 603.821 332.456 602.764 333.777C602.121 334.614 601.752 335.629 601.707 336.684L604.613 335.627C604.932 333.466 605.463 331.341 606.198 329.285C607.254 326.642 604.085 318.715 604.085 318.715L605.141 308.409C605.141 308.409 609.368 301.803 609.896 301.539C610.424 301.274 608.839 289.912 608.839 289.912C608.839 289.912 606.198 289.119 604.877 289.912C603.556 290.704 600.651 295.461 600.651 295.461Z" fill="#63B7AF"/>
<path d="M575.293 289.647H573.708L562.878 295.197C562.878 295.197 562.086 291.761 561.557 292.554C561.029 293.347 561.293 295.461 559.972 295.989C558.652 296.518 557.859 297.311 559.972 298.368C562.086 299.425 562.35 298.632 562.35 300.482C562.35 302.331 563.935 302.596 565.255 302.067C566.576 301.539 566.84 301.274 568.161 301.803C569.482 302.331 568.689 303.124 570.538 302.331C572.387 301.539 577.142 301.803 577.142 301.803L575.293 289.647Z" fill="#63B7AF"/>
<path d="M606.991 290.44L608.84 289.912C608.84 289.912 614.387 290.44 615.708 290.44C617.028 290.44 618.349 290.176 619.142 290.176C619.934 290.176 623.896 289.648 624.425 289.119C624.953 288.591 627.33 287.269 627.594 288.062C627.859 288.855 630.764 293.875 628.123 296.254C625.481 298.632 624.953 297.575 623.368 298.632C621.783 299.689 609.104 301.803 608.84 301.539C608.576 301.274 606.991 290.44 606.991 290.44Z" fill="#63B7AF"/>
<path d="M596.161 300.482C600.537 300.482 604.085 296.932 604.085 292.554C604.085 288.176 600.537 284.627 596.161 284.627C591.784 284.627 588.236 288.176 588.236 292.554C588.236 296.932 591.784 300.482 596.161 300.482Z" fill="#A0616A"/>
<path d="M590.329 292.873C590.419 293.046 590.475 293.234 590.493 293.428C590.599 293.878 590.852 294.279 591.211 294.569C591.571 294.859 592.017 295.02 592.479 295.028C592.441 295.198 592.44 295.374 592.474 295.545C592.509 295.716 592.58 295.877 592.681 296.019C592.783 296.161 592.913 296.279 593.063 296.367C593.213 296.455 593.381 296.511 593.554 296.53C594.09 295.843 594.489 295.06 594.731 294.224C594.791 293.895 594.927 293.585 595.129 293.319C595.446 293.054 595.844 292.904 596.257 292.895C598.366 292.623 600.487 292.465 602.613 292.422C602.902 292.442 603.191 292.383 603.449 292.251C604.046 291.866 603.846 290.937 603.469 290.335C602.726 289.157 601.596 288.275 600.273 287.84C599.311 287.581 598.325 287.417 597.33 287.352C596.013 287.141 594.684 287.003 593.352 286.939C592.009 286.877 590.68 287.233 589.547 287.957C588.753 288.517 587.449 290.086 588.087 291.076C588.189 291.235 588.512 291.313 588.649 291.475C588.836 291.695 588.837 292.027 589.049 292.227C589.403 292.56 590.045 292.454 590.329 292.873Z" fill="#2F2E41"/>
<path d="M596.16 279.342C596.16 279.342 587.179 282.513 587.972 287.005C588.764 291.497 591.142 296.782 596.16 296.518C601.179 296.254 603.821 290.789 603.821 290.789L602.5 283.306C602.5 283.306 597.481 279.342 596.16 279.342Z" fill="#3F3D56"/>
<path d="M595.027 295.199C595.027 295.199 598.558 291.367 600.336 293.589C600.336 293.589 600.255 293.479 595.027 295.199Z" fill="#2F2E41"/>
<path d="M601.694 393.184C596.959 393.184 591.1 391.615 585.391 385.943C571.415 372.057 558.137 370.664 558.005 370.652L558.054 370.125C558.189 370.138 571.655 371.55 585.764 385.568C593.014 392.771 600.497 393.212 605.498 392.313C608.801 391.713 611.947 390.445 614.743 388.586L615.055 389.012C612.199 390.914 608.986 392.213 605.612 392.83C604.319 393.064 603.008 393.183 601.694 393.184V393.184Z" fill="#2F2E41"/>
<path d="M565.123 381.738C566.874 381.738 568.293 380.318 568.293 378.567C568.293 376.816 566.874 375.396 565.123 375.396C563.372 375.396 561.953 376.816 561.953 378.567C561.953 380.318 563.372 381.738 565.123 381.738Z" fill="#2F2E41"/>
<path d="M587.576 396.536C589.326 396.536 590.745 395.116 590.745 393.365C590.745 391.614 589.326 390.194 587.576 390.194C585.825 390.194 584.406 391.614 584.406 393.365C584.406 395.116 585.825 396.536 587.576 396.536Z" fill="#2F2E41"/>
</g>
<defs>
<clipPath id="clip0">
<rect width="766" height="474" fill="white"/>
</clipPath>
</defs>
</svg>
