<svg width="841" height="428" viewBox="0 0 841 428" fill="none" xmlns="http://www.w3.org/2000/svg">
<g clip-path="url(#clip0)">
<path d="M180.872 388.039C196.943 388.039 209.972 361.457 209.972 328.665C209.972 295.873 196.943 269.291 180.872 269.291C164.801 269.291 151.773 295.873 151.773 328.665C151.773 361.457 164.801 388.039 180.872 388.039Z" fill="#E6E6E6"/>
<path d="M183.559 425.851C171.905 355.926 183.442 286.253 183.56 285.558L185.827 285.942C185.71 286.634 174.239 355.941 185.828 425.474L183.559 425.851Z" fill="#3F3D56"/>
<path d="M206.491 315.898L180.178 329.972L181.262 332L207.576 317.926L206.491 315.898Z" fill="#3F3D56"/>
<path d="M153.491 322.948L152.406 324.976L178.716 339.058L179.802 337.031L153.491 322.948Z" fill="#3F3D56"/>
<path d="M767.753 3.96291H720.059V169.058H767.753V3.96291Z" fill="#3F3D56"/>
<path d="M799.25 138L683.25 0L450.404 2.129L309.156 139.707L312.01 141.542H310.991V427.706H798.937V141.542L799.25 138Z" fill="#3F3D56"/>
<path d="M683.371 0.294006L538.455 170.193V427.706H798.937V137.873L683.371 0.294006Z" fill="#63B7AF"/>
<path d="M696.212 285.298H643.015V332.318H696.212V285.298Z" fill="#3F3D56"/>
<path d="M696.212 203.911H643.015V250.186H696.212V203.911Z" fill="#3F3D56"/>
<path d="M696.212 285.298H643.015V332.318H696.212V285.298Z" fill="white"/>
<path d="M696.212 203.911H643.015V250.186H696.212V203.911Z" fill="white"/>
<path d="M502.329 419.315C502.329 419.315 503.47 395.419 526.849 398.197Z" fill="#E6E6E6"/>
<path d="M495.724 396.575C502.186 396.575 507.424 391.337 507.424 384.874C507.424 378.412 502.186 373.173 495.724 373.173C489.261 373.173 484.023 378.412 484.023 384.874C484.023 391.337 489.261 396.575 495.724 396.575Z" fill="#63B7AF"/>
<path d="M497.123 404.578H493.82V427.698H497.123V404.578Z" fill="#E6E6E6"/>
<path d="M110.955 353.226C142.388 353.226 167.87 301.233 167.87 237.096C167.87 172.96 142.388 120.967 110.955 120.967C79.5219 120.967 54.0403 172.96 54.0403 237.096C54.0403 301.233 79.5219 353.226 110.955 353.226Z" fill="#63B7AF"/>
<path d="M117.295 427.001C94.5302 290.416 117.065 154.328 117.295 152.969L119.562 153.353C119.333 154.709 96.864 290.43 119.563 426.624L117.295 427.001Z" fill="#3F3D56"/>
<path d="M161.582 213.094L110.115 240.623L111.199 242.651L162.667 215.121L161.582 213.094Z" fill="#3F3D56"/>
<path d="M56.8823 226.884L55.7971 228.912L107.257 256.455L108.342 254.428L56.8823 226.884Z" fill="#3F3D56"/>
<path d="M245.754 326.115C288.767 326.115 323.637 254.967 323.637 167.201C323.637 79.4353 288.767 8.28722 245.754 8.28722C202.74 8.28722 167.87 79.4353 167.87 167.201C167.87 254.967 202.74 326.115 245.754 326.115Z" fill="#63B7AF"/>
<path d="M254.847 427.001C223.707 240.164 254.532 54.0089 254.847 52.1505L257.114 52.5345C256.8 54.3895 226.04 240.178 257.115 426.624L254.847 427.001Z" fill="#3F3D56"/>
<path d="M315.233 134.728L244.803 172.4L245.888 174.428L316.317 136.756L315.233 134.728Z" fill="#3F3D56"/>
<path d="M171.559 153.6L170.474 155.627L240.893 193.317L241.979 191.29L171.559 153.6Z" fill="#3F3D56"/>
<path d="M840.5 425.813H0V427.813H840.5V425.813Z" fill="#3F3D56"/>
<path d="M459.8 272.821H406.603V319.841H459.8V272.821Z" fill="#3F3D56"/>
<path d="M459.8 191.434H406.603V237.709H459.8V191.434Z" fill="#3F3D56"/>
<path d="M459.8 272.821H406.603V319.841H459.8V272.821Z" fill="white"/>
<path d="M459.8 191.434H406.603V237.709H459.8V191.434Z" fill="white"/>
</g>
<defs>
<clipPath id="clip0">
<rect width="840.5" height="427.813" fill="white"/>
</clipPath>
</defs>
</svg>
